<?xml version="1.0" encoding="utf-8"?>
<svg viewBox="0 139.77 462.78 183.25" xmlns="http://www.w3.org/2000/svg">
  <g id="XMLID_21_" transform="matrix(0.9999999999999999, 0, 0.005729000549763441, 1, -1.3401349594140441, 0.08491700768045263)" style="">
    <path id="XMLID_904_" d="M 350.272 323.014 C 344.298 323.014 338.861 319.458 336.489 313.923 L 286.067 196.273 L 245.562 312.935 C 243.482 318.924 237.863 322.958 231.524 323.015 C 231.48 323.015 231.435 323.015 231.391 323.015 C 225.105 323.015 219.48 319.094 217.31 313.184 L 175.331 198.826 L 134.533 313.06 C 132.438 318.927 126.934 322.888 120.706 323.012 C 114.464 323.139 108.82 319.397 106.493 313.618 L 75.011 235.446 L -0.074 248.247 L -0.074 218.247 L 85.141 205.446 C 91.262 205.446 96.768 209.165 99.055 214.842 L 119.566 265.772 L 161.012 149.724 C 163.136 143.777 168.757 139.797 175.072 139.769 C 175.094 139.769 175.116 139.769 175.138 139.769 C 181.427 139.769 187.05 143.692 189.219 149.6 L 230.998 263.414 L 270.429 149.849 C 272.461 143.998 277.88 139.997 284.069 139.778 C 290.272 139.561 295.946 143.167 298.386 148.86 L 348.069 264.787 L 363.323 215.972 C 365.28 209.71 371.079 205.446 377.64 205.446 L 462.707 218.247 L 462.707 248.247 L 388.668 235.446 L 364.592 312.489 C 362.719 318.483 357.311 322.675 351.039 322.995 C 350.784 323.007 350.527 323.014 350.272 323.014 Z"/>
  </g>
</svg>