<?xml version="1.0" encoding="utf-8"?>
<svg version="1.1" id="Capa_1" xmlns="http://www.w3.org/2000/svg" viewBox="0 0 460 460" xmlns:bx="https://boxy-svg.com">
  <defs>
    <bx:guide x="230.29" y="121.106" angle="0"/>
  </defs>
  <g id="XMLID_1026_">
    <path id="XMLID_1220_" d="M407.258,230c0-92.688-71.512-168.976-162.258-176.617V0h-30v53.383 C124.254,61.024,52.742,137.313,52.742,230c0,92.944,71.907,169.403,163.01,176.684V460h30v-53.45 C336.14,398.551,407.258,322.431,407.258,230z M230,377.258c-81.198,0-147.257-66.06-147.257-147.258S148.802,82.742,230,82.742 S377.258,148.802,377.258,230S311.198,377.258,230,377.258z"/>
    <rect id="XMLID_1440_" x="210.558" y="129.335" width="37.947" height="211.306" style="" rx="18.973" ry="18.973"/>
    <polyline style="stroke-width: 30px; stroke-linecap: round; fill: rgb(255, 255, 255); fill-opacity: 0;" points="175.382 192.123 229.957 137.765 284.832 192.89"/>
  </g>
</svg>