<?xml version="1.0" encoding="utf-8"?>
<svg viewBox="0 0 400 200" version="1.1" preserveAspectRatio="xMidYMid meet" xmlns="http://www.w3.org/2000/svg">
  <path d="M 274.228 200 C 253.642 200 238.938 168.199 238.938 123.371 C 238.315 93.373 245.315 63.767 259.171 37.804 C 247.188 23.602 226.571 23.602 214.587 37.804 C 228.502 63.529 235.663 92.901 235.291 122.733 C 235.291 168.199 220.822 199.361 200 199.361 C 179.178 199.361 164.709 167.56 164.709 122.733 C 164.086 92.735 171.087 63.129 184.942 37.165 C 172.959 22.964 152.341 22.964 140.358 37.165 C 154.214 63.129 161.214 92.735 160.591 122.733 C 160.591 168.199 146.123 199.361 125.301 199.361 C 104.479 199.361 90.01 167.56 90.01 122.733 C 89.406 92.752 96.361 63.163 110.126 37.165 C 104.379 30.384 96.373 26.385 87.892 26.053 C 71.776 26.053 55.189 74.689 47.072 104.063 L 44.367 113.002 L 11.782 113.002 C 2.725 113.002 -2.934 102.359 1.593 93.845 C 3.695 89.894 7.579 87.46 11.782 87.46 L 26.956 87.46 C 39.896 51.317 62.953 0 88.598 0 C 102.509 0.305 115.793 6.331 125.772 16.859 C 135.687 6.307 148.944 0.274 162.827 0 C 176.807 0.417 190.11 6.633 200 17.369 C 220.41 -5.113 253.818 -5.113 274.228 17.369 C 284.207 6.842 297.491 0.817 311.402 0.512 C 337.047 0.512 360.104 52.129 373.044 88.273 L 388.218 88.273 C 397.275 88.273 402.934 98.915 398.406 107.43 C 396.305 111.381 392.421 113.815 388.218 113.815 L 356.221 113.815 L 353.515 104.875 C 344.811 74.991 328.224 26.053 311.402 26.053 C 302.921 26.385 294.915 30.384 289.168 37.165 C 302.933 63.163 309.888 92.752 309.284 122.733 C 309.284 168.199 294.933 200 274.228 200 Z M 200 61.048 C 192.089 80.47 188.079 101.498 188.236 122.733 C 188.236 155.173 196 170.625 200 173.818 C 203.765 170.371 211.764 154.916 211.764 122.733 C 211.921 101.498 207.91 80.47 200 61.048 Z M 274.228 61.048 C 266.318 80.47 262.307 101.498 262.465 122.733 C 262.465 155.173 270.229 170.625 274.228 173.818 C 277.993 170.371 285.992 154.916 285.992 122.733 C 286.149 101.498 282.14 80.47 274.228 61.048 Z M 125.772 61.048 C 117.86 80.47 113.851 101.498 114.008 122.733 C 114.008 155.173 121.772 170.625 125.772 173.818 C 129.535 170.371 137.534 154.916 137.534 122.733 C 137.692 101.498 133.682 80.47 125.772 61.048 Z" class="clr-i-outline clr-i-outline-path-1" style=""/>
</svg>