<?xml version="1.0" encoding="utf-8"?>
<svg viewBox="0 0 400 200" xmlns="http://www.w3.org/2000/svg">
  <g id="XMLID_21_" transform="matrix(1, 0, 0.005729001015424728, 1, -1.3401349594140726, 0.0849170151309977)">
    <path id="XMLID_904_" d="M 303.292 199.388 C 298.145 199.388 293.458 195.528 291.414 189.518 L 247.956 61.786 L 213.046 188.446 C 211.252 194.947 206.41 199.327 200.946 199.39 C 200.907 199.39 200.87 199.39 200.832 199.39 C 195.414 199.39 190.567 195.132 188.696 188.716 L 152.514 64.559 L 117.352 188.581 C 115.547 194.951 110.802 199.251 105.435 199.386 C 100.055 199.524 95.191 195.461 93.186 189.186 L 66.051 104.316 L 0.664 118.215 L 0.872 85.643 L 74.782 71.745 C 80.058 71.745 84.804 75.783 86.775 81.946 L 104.453 137.241 L 140.173 11.248 C 142.005 4.792 146.849 0.472 152.291 0.441 C 152.31 0.441 152.329 0.441 152.348 0.441 C 157.769 0.441 162.616 4.699 164.484 11.113 L 200.493 134.681 L 234.477 11.384 C 236.229 5.032 240.901 0.689 246.233 0.451 C 251.58 0.214 256.472 4.13 258.573 10.311 L 301.394 136.171 L 314.541 83.173 C 316.227 76.375 321.226 71.745 326.881 71.745 L 400.854 85.643 L 400.66 118.215 L 336.385 104.316 L 315.635 187.961 C 314.02 194.468 309.359 199.02 303.953 199.368 C 303.734 199.381 303.512 199.388 303.292 199.388 Z" style=""/>
  </g>
</svg>